<?xml version="1.0" encoding="utf-8"?>
<!-- Generator: Adobe Illustrator 27.4.1, SVG Export Plug-In . SVG Version: 6.00 Build 0)  -->
<svg version="1.1" id="Layer_1" xmlns="http://www.w3.org/2000/svg" xmlns:xlink="http://www.w3.org/1999/xlink" x="0px" y="0px"
	 viewBox="0 0 154 50" style="enable-background:new 0 0 154 50;" xml:space="preserve">
<style type="text/css">
	.st0{fill:#FFFFFF;}
</style>
<g>
	<g>
		<path class="st0" d="M24.8,29.7h3.1c0,3.7,2.1,5.8,7.2,5.8c4.7,0,6.3-1.9,6.3-3.6c0-5.6-16.2-2.2-16.2-10.1c0-3.4,2.5-6.2,9.4-6.2
			c7,0,9.4,3.3,9.4,8.1h-3c-0.1-3.4-1.7-5.5-6.5-5.5c-5.2,0-6.1,1.9-6.1,3.6c0,5.1,16.1,1.9,16.1,9.9c0,3.1-2.6,6.4-9.4,6.4
			C27.9,38.1,24.6,35.3,24.8,29.7"/>
		<rect x="47.9" y="15.9" class="st0" width="3.2" height="22"/>
		<path class="st0" d="M11.7,15.6c-7.6,0-9.5,3.4-9.5,7.9h3.2c0-3.3,1.3-5.3,6.4-5.3c5.5,0,6.8,1.7,6.9,6.1l-8,0.9
			c-6.2,0.7-9,2.4-9,6.4c0,4.5,3.8,6.5,8.5,6.5c4,0,7.1-1.5,8.6-3.6v3.4H20v0h1.8V25.2C21.8,19.4,20.6,15.6,11.7,15.6 M18.6,28.2
			c0,4.9-3.5,7.3-7.9,7.3c-3.6,0-5.8-1.4-5.8-4c0-2.2,1.6-3.2,6.1-3.8l7.5-1V28.2z"/>
		<path class="st0" d="M88.8,15.6c-4.2,0-6.6,1.3-7.8,2.9v-2.7h-3.1v0h0v22h3.2v-12c0-4.8,1.2-7.5,6.9-7.5c4.8,0,6.5,2.8,6.5,7.5v12
			h3.2V26.1C97.7,19.8,95.2,15.6,88.8,15.6"/>
		<path class="st0" d="M51.5,10.3c0,1.1-0.9,2.1-2.1,2.1c-1.1,0-2.1-0.9-2.1-2.1c0-1.1,0.9-2.1,2.1-2.1C50.6,8.3,51.5,9.2,51.5,10.3
			"/>
		<path class="st0" d="M53.9,41.6h3.3c0.1,2.9,1.4,5.2,7.8,5.2c5.9,0,7.2-1.6,7.2-3.1c0-2-2-2.5-7.2-3.4c-5.7-1-10.4-2-10.4-5.6
			c0-1.8,1.2-3.3,3.3-4c-2.4-1.3-3.1-4-3.1-6.5c0-7.7,7.2-8.3,10.3-8.3h9.6v1.6l-3.7,0.6c2.2,1.4,3.2,3.4,3.2,6.5c0,5.3-3,8-9.7,8
			c-1.9,0-3.4-0.3-4.5-0.6c-2,0.2-2.4,1.7-2.4,2.4c0,1.3,1.5,2.1,7.7,3.1c6.7,1,9.8,2.2,10.1,5.7c0.3,2.9-1.8,6.1-10.8,6.1
			C56.2,49.4,53.9,46.1,53.9,41.6 M64.4,30.2c5.2,0,6.4-2.7,6.4-6c0-3-1-5.8-6.4-5.8c-5.2,0-6.4,2.6-6.4,5.8
			C58,27.5,59.1,30.2,64.4,30.2"/>
	</g>
	<g>
		<g>
			<g>
				<path class="st0" d="M125.3,38.2c-0.3,0-0.7-0.1-0.9-0.4l-8.7-8.7c-0.5-0.5-0.5-1.3,0-1.8c0.5-0.5,1.3-0.5,1.8,0l8.7,8.7
					c0.5,0.5,0.5,1.3,0,1.8C126,38.1,125.6,38.2,125.3,38.2z"/>
			</g>
			<path class="st0" d="M131.8,34.3l-7.1-7.1c1.7-0.1,3.5-0.8,4.8-2.1c0.6-0.6,1.1-1.3,1.4-2.1c0.3-0.6,0-1.4-0.6-1.7
				c-0.6-0.3-1.4,0-1.7,0.6c-0.2,0.5-0.5,0.9-0.9,1.3c-1.9,1.9-5,1.8-7-0.1l-1.5-1.5c-0.3-0.3-0.6-0.4-0.9-0.4
				c-0.3,0-0.7,0.1-0.9,0.4c-0.4,0.4-0.5,0.9-0.3,1.4c0.1,0.2,0.2,0.3,0.3,0.4L130,36.1c0.3,0.3,0.6,0.4,0.9,0.4s0.7-0.1,0.9-0.4
				C132.3,35.6,132.3,34.8,131.8,34.3z"/>
			<g>
				<path class="st0" d="M118.1,38.2c-0.3,0-0.7-0.1-0.9-0.4l-7.2-7.3c-3.2-3.4-3.8-8-1.6-11.6c2.3-3.6,6.8-4.9,11.5-3.4l7.4,2.4
					c0.7,0.2,1,0.9,0.8,1.6c-0.2,0.7-0.9,1-1.6,0.8l-7.4-2.4c-4.3-1.4-7.2,0.3-8.5,2.3c-1.3,2.1-1.5,5.6,1.2,8.4L119,36
					c0.5,0.5,0.5,1.3,0,1.8C118.7,38.1,118.4,38.2,118.1,38.2z"/>
			</g>
		</g>
		<g>
			<g>
				<path class="st0" d="M134.6,0.6c0.3,0,0.7,0.1,0.9,0.4l8.7,8.7c0.5,0.5,0.5,1.3,0,1.8c-0.5,0.5-1.3,0.5-1.8,0l-8.7-8.7
					c-0.5-0.5-0.5-1.3,0-1.8C134,0.8,134.3,0.6,134.6,0.6z"/>
			</g>
			<path class="st0" d="M128.1,4.5l7.1,7.1c-1.7,0.1-3.5,0.8-4.8,2.1c-0.6,0.6-1.1,1.3-1.4,2.1c-0.3,0.6,0,1.4,0.6,1.7
				c0.6,0.3,1.4,0,1.7-0.6c0.2-0.5,0.5-0.9,0.9-1.3c1.9-1.9,5-1.8,7,0.1l1.5,1.5c0.3,0.3,0.6,0.4,0.9,0.4c0.3,0,0.7-0.1,0.9-0.4
				c0.4-0.4,0.5-0.9,0.3-1.4c-0.1-0.2-0.2-0.3-0.3-0.4L129.9,2.7c-0.3-0.3-0.6-0.4-0.9-0.4s-0.7,0.1-0.9,0.4
				C127.6,3.2,127.6,4,128.1,4.5z"/>
			<g>
				<path class="st0" d="M141.8,0.6c0.3,0,0.7,0.1,0.9,0.4l7.2,7.3c3.2,3.4,3.8,8,1.6,11.6c-2.3,3.6-6.8,4.9-11.5,3.4l-7.4-2.4
					c-0.7-0.2-1-0.9-0.8-1.6c0.2-0.7,0.9-1,1.6-0.8l7.4,2.4c4.3,1.4,7.2-0.3,8.5-2.3c1.3-2.1,1.5-5.6-1.2-8.4l-7.2-7.3
					c-0.5-0.5-0.5-1.3,0-1.8C141.2,0.8,141.5,0.6,141.8,0.6z"/>
			</g>
		</g>
	</g>
</g>
</svg>
