<?xml version="1.0" encoding="UTF-8"?>
<svg id="Layer_1" data-name="Layer 1" xmlns="http://www.w3.org/2000/svg" viewBox="0 0 151.11 48.7">
  <defs>
    <style>
      .cls-1 {
        fill: #005fa8;
      }

      .cls-2 {
        fill: #222d3a;
      }
    </style>
  </defs>
  <path class="cls-2" d="m23.1,29.1h3.1c0,3.7,2.1,5.8,7.2,5.8,4.7,0,6.3-1.9,6.3-3.6,0-5.6-16.2-2.2-16.2-10.1,0-3.4,2.5-6.2,9.4-6.2s9.4,3.3,9.4,8.1h-3c-.1-3.4-1.7-5.5-6.5-5.5-5.2,0-6.1,1.9-6.1,3.6,0,5.1,16.1,1.9,16.1,9.9,0,3.1-2.6,6.4-9.4,6.4-7.2,0-10.5-2.8-10.3-8.4m23.1-13.8h3.2v22h-3.2V15.3Zm-36.2-.3c-7.6,0-9.5,3.4-9.5,7.9h3.2c0-3.3,1.3-5.3,6.4-5.3,5.5,0,6.8,1.7,6.9,6.1l-8,.9c-6.2.7-9,2.4-9,6.4,0,4.5,3.8,6.5,8.5,6.5,4,0,7.1-1.5,8.6-3.6v3.4h3v-12.7c0-5.8-1.2-9.6-10.1-9.6m6.9,12.6c0,4.9-3.5,7.3-7.9,7.3-3.6,0-5.8-1.4-5.8-4,0-2.2,1.6-3.2,6.1-3.8l7.5-1v1.5h.1Zm70.2-12.6c-4.2,0-6.6,1.3-7.8,2.9v-2.7h-3.1v22h3.2v-12c0-4.8,1.2-7.5,6.9-7.5,4.8,0,6.5,2.8,6.5,7.5v12h3.2v-11.7c0-6.3-2.5-10.5-8.9-10.5m-37.3-5.3c0,1.1-.9,2.1-2.1,2.1-1.1,0-2.1-.9-2.1-2.1,0-1.1.9-2.1,2.1-2.1,1.2.1,2.1,1,2.1,2.1m2.4,31.3h3.3c.1,2.9,1.4,5.2,7.8,5.2,5.9,0,7.2-1.6,7.2-3.1,0-2-2-2.5-7.2-3.4-5.7-1-10.4-2-10.4-5.6,0-1.8,1.2-3.3,3.3-4-2.4-1.3-3.1-4-3.1-6.5,0-7.7,7.2-8.3,10.3-8.3h9.6v1.6l-3.7.6c2.2,1.4,3.2,3.4,3.2,6.5,0,5.3-3,8-9.7,8-1.9,0-3.4-.3-4.5-.6-2,.2-2.4,1.7-2.4,2.4,0,1.3,1.5,2.1,7.7,3.1,6.7,1,9.8,2.2,10.1,5.7.3,2.9-1.8,6.1-10.8,6.1-8.4.1-10.7-3.2-10.7-7.7m10.5-11.4c5.2,0,6.4-2.7,6.4-6,0-3-1-5.8-6.4-5.8s-6.4,2.6-6.4,5.8,1.1,6,6.4,6"/>
  <path class="cls-1" d="m123.6,37.6c-.3,0-.7-.1-.9-.4l-8.7-8.7c-.5-.5-.5-1.3,0-1.8s1.3-.5,1.8,0l8.7,8.7c.5.5.5,1.3,0,1.8-.2.3-.6.4-.9.4Zm6.5-3.9l-7.1-7.1c1.7-.1,3.5-.8,4.8-2.1.6-.6,1.1-1.3,1.4-2.1.3-.6,0-1.4-.6-1.7-.6-.3-1.4,0-1.7.6-.2.5-.5.9-.9,1.3-1.9,1.9-5,1.8-7-.1l-1.5-1.5c-.3-.3-.6-.4-.9-.4s-.7.1-.9.4c-.4.4-.5.9-.3,1.4.1.2.2.3.3.4l12.6,12.7c.3.3.6.4.9.4s.7-.1.9-.4c.5-.5.5-1.3,0-1.8h0Z"/>
  <path class="cls-1" d="m116.4,37.6c-.3,0-.7-.1-.9-.4l-7.2-7.3c-3.2-3.4-3.8-8-1.6-11.6,2.3-3.6,6.8-4.9,11.5-3.4l7.4,2.4c.7.2,1,.9.8,1.6s-.9,1-1.6.8l-7.4-2.4c-4.3-1.4-7.2.3-8.5,2.3-1.3,2.1-1.5,5.6,1.2,8.4l7.2,7.4c.5.5.5,1.3,0,1.8-.3.3-.6.4-.9.4ZM132.9,0c.3,0,.7.1.9.4l8.7,8.7c.5.5.5,1.3,0,1.8s-1.3.5-1.8,0l-8.7-8.7c-.5-.5-.5-1.3,0-1.8C132.3.2,132.6,0,132.9,0h0Zm-6.5,3.9l7.1,7.1c-1.7.1-3.5.8-4.8,2.1-.6.6-1.1,1.3-1.4,2.1-.3.6,0,1.4.6,1.7.6.3,1.4,0,1.7-.6.2-.5.5-.9.9-1.3,1.9-1.9,5-1.8,7,.1l1.5,1.5c.3.3.6.4.9.4s.7-.1.9-.4c.4-.4.5-.9.3-1.4-.1-.2-.2-.3-.3-.4l-12.6-12.7c-.3-.3-.6-.4-.9-.4s-.7.1-.9.4c-.5.5-.5,1.3,0,1.8Z"/>
  <path class="cls-1" d="m140.1,0c.3,0,.7.1.9.4l7.2,7.3c3.2,3.4,3.8,8,1.6,11.6-2.3,3.6-6.8,4.9-11.5,3.4l-7.4-2.4c-.7-.2-1-.9-.8-1.6s.9-1,1.6-.8l7.4,2.4c4.3,1.4,7.2-.3,8.5-2.3,1.3-2.1,1.5-5.6-1.2-8.4l-7.2-7.3c-.5-.5-.5-1.3,0-1.8.3-.3.6-.5.9-.5Z"/>
</svg>